<svg width="288" height="500" viewBox="0 0 288 500" fill="none" xmlns="http://www.w3.org/2000/svg">
<mask id="mask0" mask-type="alpha" maskUnits="userSpaceOnUse" x="0" y="0" width="288" height="500">
<rect width="288" height="500" rx="24" fill="#C4C4C4"/>
</mask>
<g mask="url(#mask0)">
<rect width="288" height="500" fill="#C997C9"/>
<path d="M229.419 94.8464L229.127 94.488L228.931 94.2491L224.788 89.6664C223.107 87.8528 220.807 86.7442 218.311 86.493L90.9547 73.1268C85.2027 72.5479 80.0773 76.6363 79.3898 82.3773L63.0096 238.591L67.2502 243.293L215.313 258.963L231.683 102.858C232.086 99.9384 231.274 97.116 229.419 94.8464Z" fill="#C997C9" stroke="black" stroke-width="0.5" stroke-miterlimit="10"/>
<path d="M95.2066 77.7208L222.443 91.1846C228.195 91.7635 232.381 97.0084 231.803 102.76L215.433 258.865L67.2615 243.185L83.7394 87.0908C84.3183 81.3388 89.4547 77.1419 95.2066 77.7208Z" fill="#DFC2DE" stroke="black" stroke-width="0.5" stroke-linecap="round" stroke-linejoin="round"/>
<path d="M67.2612 243.185L215.433 258.865L217.857 235.868L83.6845 87.6331L67.2612 243.185Z" fill="#EAD7EA"/>
<path d="M95.2066 77.7208L222.443 91.1846C228.195 91.7635 232.381 97.0084 231.802 102.76L215.433 258.865L67.2615 243.185L83.7394 87.0908C84.3183 81.3388 89.4547 77.1419 95.2066 77.7208Z" stroke="black" stroke-width="0.5" stroke-linecap="round" stroke-linejoin="round"/>
<path d="M90.9545 73.1269L218.191 86.5908C223.943 87.1697 228.129 92.4146 227.55 98.1665L211.181 254.272L63.0094 238.591L79.3787 82.486C80.0771 76.6365 85.2135 72.4395 90.9545 73.1269Z" stroke="black" stroke-width="0.5" stroke-miterlimit="10"/>
<path d="M211.192 254.163L63.0098 238.591L61.7864 250.746C61.5352 253.242 62.1522 255.826 63.5944 257.835C64.0715 258.54 64.668 259.148 65.2755 259.648L68.1388 262.787C68.4207 263.253 68.822 263.623 69.2233 263.992L69.3209 264.111C71.0239 265.708 73.1289 266.578 75.3971 266.916L202.742 280.39C208.494 280.969 213.631 276.772 214.318 271.031L215.65 258.887L211.192 254.163Z" fill="#6D4B6C" stroke="black" stroke-width="0.5" stroke-linecap="round" stroke-linejoin="round"/>
<path d="M63.0098 238.591L211.073 254.261L209.741 266.405C209.162 272.157 203.917 276.343 198.165 275.764L71.1455 262.322C65.3935 261.743 61.2075 256.498 61.7864 250.746L63.0098 238.591Z" fill="#C997C9" stroke="black" stroke-width="0.5" stroke-miterlimit="10"/>
<path d="M155.152 344.775L131.964 319.2L99.4168 315.815L91.3464 376.393L104.767 384.651C106.937 385.965 109.215 387.291 111.635 388.302L143.361 403.115C145.661 404.224 147.7 405.745 149.273 407.547L179.252 438.629L211.963 405.525L177.23 374.842C173.792 371.975 171.2 368.315 169.542 364.092L155.932 330.492C155.043 328.43 153.579 326.638 151.735 325.356L132.619 312.689C130.873 311.526 128.854 310.885 126.879 310.905L105.563 310.294C103.707 310.217 102.133 311.703 102.056 313.559L102.045 313.668C102.02 318.269 105.111 322.417 109.581 323.744L127.67 329.183L137.291 339.25L135.741 353.565C135.271 358.231 136.429 363.062 138.999 366.938L143.293 373.29" fill="#956694"/>
<path d="M155.152 344.775L131.964 319.2L99.4168 315.815L91.3464 376.393L104.767 384.651C106.937 385.965 109.215 387.291 111.635 388.302L143.361 403.115C145.661 404.224 147.7 405.745 149.273 407.547L179.252 438.629L211.963 405.525L177.23 374.842C173.792 371.975 171.2 368.315 169.542 364.092L155.932 330.492C155.043 328.43 153.579 326.638 151.735 325.356L132.619 312.689C130.873 311.526 128.854 310.885 126.879 310.905L105.563 310.294C103.707 310.217 102.133 311.703 102.056 313.559L102.045 313.668C102.02 318.269 105.111 322.417 109.581 323.744L127.67 329.183L137.291 339.25L135.741 353.565C135.271 358.231 136.429 363.062 138.999 366.938L143.293 373.29" stroke="black" stroke-width="0.5" stroke-linecap="round" stroke-linejoin="round"/>
<path d="M136.244 346.38L134.978 340.442L95.5992 378.795L104.788 384.433C106.958 385.748 109.237 387.074 111.656 388.085L138.879 400.8L141.775 370.945L136.244 346.38Z" fill="#6D4B6C"/>
<path d="M141.928 385.76L91.5215 374.657L91.3576 376.285L104.778 384.542C106.948 385.857 109.226 387.182 111.646 388.193L143.372 403.007C145.672 404.115 147.711 405.636 149.284 407.439L179.263 438.52L185.117 432.641L154.562 402.927C153.868 402.199 153.39 401.493 152.924 400.679L147.917 390.528C146.746 387.998 144.511 386.239 141.928 385.76Z" fill="#6D4B6C"/>
<path d="M91.3574 376.285L104.778 384.542C106.948 385.857 109.226 387.182 111.646 388.193L143.372 403.007C145.672 404.115 147.711 405.636 149.284 407.439L179.263 438.52L190.981 426.654" stroke="black" stroke-width="0.5" stroke-linecap="round" stroke-linejoin="round"/>
<path d="M143.476 273.439L143.487 273.33C143.574 272.462 139.092 271.243 133.546 270.795C128.229 270.26 123.811 270.582 123.301 271.298L108.458 415.498C107.89 421.142 111.881 426.148 117.525 426.716C123.168 427.284 128.174 423.293 128.742 417.649L143.476 273.439Z" fill="#DFC2DE" stroke="black" stroke-width="0.5" stroke-miterlimit="10"/>
<path d="M143.596 273.341C143.651 272.798 142.175 272.211 139.918 271.765L123.693 405.74C122.809 413.434 118.713 420.367 112.665 424.911C114.097 425.932 115.779 426.649 117.624 426.835C123.267 427.403 128.273 423.412 128.841 417.769L143.586 273.45C143.596 273.341 143.596 273.341 143.596 273.341Z" fill="#C897C7"/>
<path d="M143.476 273.439L143.487 273.33C143.574 272.462 139.092 271.243 133.546 270.795C128.229 270.26 123.811 270.582 123.301 271.298L108.458 415.498C107.89 421.142 111.881 426.148 117.525 426.716C123.168 427.284 128.174 423.293 128.742 417.649L143.476 273.439Z" stroke="black" stroke-width="0.5" stroke-miterlimit="10"/>
<path d="M91.5621 361.177L90.2481 362.25C89.0536 363.226 88.2605 364.572 88.1075 366.091L87.8235 368.913C87.5286 371.843 88.8944 374.612 91.3679 376.176L95.5991 378.794C97.1505 379.718 98.9518 380.338 100.797 380.523L122.6 382.828C125.639 383.133 128.266 380.986 128.572 377.947C128.845 375.234 127.121 372.758 124.452 372.051L103.475 366.98" fill="url(#paint0_linear)"/>
<path d="M91.5621 361.177L90.2481 362.25C89.0536 363.226 88.2605 364.572 88.1075 366.091L87.8235 368.913C87.5286 371.843 88.8944 374.612 91.3679 376.176L95.5991 378.794C97.1505 379.718 98.9518 380.338 100.797 380.523L122.6 382.828C125.639 383.133 128.266 380.986 128.572 377.947C128.845 375.234 127.121 372.758 124.452 372.051L103.475 366.98" stroke="black" stroke-width="0.5" stroke-linecap="round" stroke-linejoin="round"/>
<path d="M103.757 368.543L104.722 369.846C105.21 370.444 105.351 371.225 105.166 371.974L104.142 377.791C103.935 378.757 103.305 379.57 102.393 379.917L100.678 380.621L122.264 382.903C125.085 383.187 127.67 381.474 128.388 378.696L128.399 378.588C128.867 376.113 127.241 373.757 124.875 373.3L103.757 368.543Z" fill="#6D4B6C"/>
<path d="M91.5621 361.177L90.2481 362.25C89.0536 363.226 88.2605 364.572 88.1075 366.091L87.8235 368.913C87.5286 371.843 88.8944 374.612 91.3679 376.176L95.5991 378.794C97.1505 379.718 98.9518 380.338 100.797 380.523L122.6 382.828C125.639 383.133 128.266 380.986 128.572 377.947C128.845 375.234 127.121 372.758 124.452 372.051L103.475 366.98" stroke="black" stroke-width="0.5" stroke-linecap="round" stroke-linejoin="round"/>
<path d="M92.2129 344.908L90.66 346.177C89.2376 347.24 88.314 348.791 88.1393 350.528L87.703 353.773C87.2559 357.126 88.7841 360.459 91.5614 362.273L96.2915 365.38C98.0382 366.543 100.046 367.293 102.205 367.62L127.188 371.011C130.65 371.47 133.853 369.051 134.311 365.589C134.736 362.453 132.839 359.521 129.746 358.662L105.873 351.874" fill="url(#paint1_linear)"/>
<path d="M92.2129 344.908L90.66 346.177C89.2376 347.24 88.314 348.791 88.1393 350.528L87.703 353.773C87.2559 357.126 88.7841 360.459 91.5614 362.273L96.2915 365.38C98.0382 366.543 100.046 367.293 102.205 367.62L127.188 371.011C130.65 371.47 133.853 369.051 134.311 365.589C134.736 362.453 132.839 359.521 129.746 358.662L105.873 351.874" stroke="black" stroke-width="0.5" stroke-linecap="round" stroke-linejoin="round"/>
<path d="M106.458 353.687L107.032 354.512C107.878 355.913 108.159 357.476 107.887 359.093L106.689 364.454C106.319 365.951 105.223 367.047 103.66 367.328L102.096 367.609L126.862 370.978C130.107 371.415 133.158 369.42 134.017 366.327L134.028 366.218C134.638 363.43 132.946 360.628 130.168 359.91L106.458 353.687Z" fill="#6D4B6C"/>
<path d="M92.2129 344.908L90.66 346.177C89.2376 347.24 88.314 348.791 88.1393 350.528L87.703 353.773C87.2559 357.126 88.7841 360.459 91.5614 362.273L96.2915 365.38C98.0382 366.543 100.046 367.293 102.205 367.62L127.188 371.011C130.65 371.47 133.853 369.051 134.311 365.589C134.736 362.453 132.839 359.521 129.746 358.662L105.873 351.874" stroke="black" stroke-width="0.5" stroke-linecap="round" stroke-linejoin="round"/>
<path d="M107.858 336.506L131.253 344.781C134.215 345.846 135.993 348.876 135.35 351.99C134.675 355.43 131.277 357.61 127.945 356.945L103.246 351.828C101.206 351.404 99.2095 350.545 97.4847 349.166L93.0045 345.755C90.3575 343.734 89.0573 340.315 89.7215 336.983L90.3748 333.76C90.7666 332.046 91.7986 330.505 93.2102 329.551L97.3145 326.894" fill="url(#paint2_linear)"/>
<path d="M107.858 336.506L131.253 344.781C134.215 345.846 135.993 348.876 135.35 351.99C134.675 355.43 131.277 357.61 127.945 356.945L103.246 351.828C101.206 351.404 99.2095 350.545 97.4847 349.166L93.0045 345.755C90.3575 343.734 89.0573 340.315 89.7215 336.983L90.3748 333.76C90.7666 332.046 91.7986 330.505 93.2102 329.551L97.3145 326.894" stroke="black" stroke-width="0.5" stroke-linecap="round" stroke-linejoin="round"/>
<path d="M131.024 345.964L123.211 342.985L104.689 335.311L108.399 338.753C109.506 339.742 109.895 341.316 109.428 342.694L107.383 348.846C106.927 350.116 105.96 351.005 104.614 351.308L103.16 351.601L103.138 351.818L127.837 356.935C131.277 357.61 134.567 355.419 135.242 351.979L135.253 351.871C135.776 348.854 133.997 346.921 131.024 345.964Z" fill="#6D4B6C"/>
<path d="M107.858 336.506L131.253 344.781C134.215 345.846 135.993 348.876 135.35 351.99C134.675 355.43 131.277 357.61 127.945 356.945L103.246 351.828C101.206 351.404 99.2095 350.545 97.4847 349.166L93.0045 345.755C90.3575 343.734 89.0573 340.315 89.7215 336.983L90.3748 333.76C90.7666 332.046 91.7986 330.505 93.2102 329.551L97.3145 326.894" stroke="black" stroke-width="0.5" stroke-linecap="round" stroke-linejoin="round"/>
<path d="M110.018 320.499L125.922 331.308C128.591 333.112 129.543 336.716 127.935 339.623C126.327 342.531 122.701 343.701 119.663 342.299L102.401 334.093C99.6773 332.833 97.2474 330.834 95.5233 328.358L92.9316 324.699C91.0014 322.093 90.8083 318.566 92.4056 315.766L94.0246 312.75C94.9482 311.199 96.3925 309.919 98.0969 309.323L103.101 307.525C106.054 306.506 109.343 306.509 112.305 307.574L139.139 317.62" fill="url(#paint3_linear)"/>
<path d="M110.018 320.499L125.922 331.308C128.591 333.112 129.543 336.716 127.935 339.623C126.327 342.531 122.701 343.701 119.663 342.299L102.401 334.093C99.6773 332.833 97.2474 330.834 95.5233 328.358L92.9316 324.699C91.0014 322.093 90.8083 318.566 92.4056 315.766L94.0246 312.75C94.9482 311.199 96.3925 309.919 98.0969 309.323L103.101 307.525C106.054 306.506 109.343 306.509 112.305 307.574L139.139 317.62" stroke="black" stroke-width="0.5" stroke-linecap="round" stroke-linejoin="round"/>
<path d="M124.977 333.077L106.046 319.661C107.26 321.757 107.324 324.394 106.118 326.575L103.977 330.416C103.053 331.967 101.436 332.791 99.6883 332.725C100.513 333.246 101.337 333.768 102.173 334.181L119.435 342.386C122.473 343.788 126.099 342.618 127.707 339.71C129.424 336.814 127.754 334.892 124.977 333.077Z" fill="#6D4B6C"/>
<path d="M110.018 320.499L125.922 331.308C128.591 333.112 129.543 336.716 127.935 339.623C126.327 342.531 122.701 343.701 119.663 342.299L102.401 334.093C99.6773 332.833 97.2474 330.834 95.5233 328.358L92.9316 324.699C91.0014 322.093 90.8083 318.566 92.4056 315.766L94.0246 312.75C94.9482 311.199 96.3925 309.919 98.0969 309.323L103.101 307.525C106.054 306.506 109.343 306.509 112.305 307.574L139.139 317.62" stroke="black" stroke-width="0.5" stroke-linecap="round" stroke-linejoin="round"/>
<path d="M143.086 373.159L138.792 366.807C136.125 362.812 134.956 358.09 135.534 353.434L137.084 339.119L127.464 329.052L109.375 323.614C104.904 322.287 101.922 318.15 101.838 313.537C101.807 311.67 103.381 310.184 105.248 310.153L105.357 310.164L126.662 310.883C128.734 310.982 130.753 311.624 132.402 312.666L151.517 325.334C153.362 326.616 154.826 328.407 155.714 330.47L169.325 364.07C170.994 368.185 173.585 371.844 177.013 374.82L185.083 381.771" fill="#956694"/>
<path d="M143.086 373.159L138.792 366.807C136.125 362.812 134.956 358.09 135.534 353.434L137.084 339.119L127.464 329.052L109.375 323.614C104.904 322.287 101.922 318.15 101.838 313.537C101.807 311.67 103.381 310.184 105.248 310.153L105.357 310.164L126.662 310.883C128.734 310.982 130.753 311.624 132.402 312.666L151.517 325.334C153.362 326.616 154.826 328.407 155.714 330.47L169.325 364.07C170.994 368.185 173.585 371.844 177.013 374.82L185.083 381.771" stroke="black" stroke-width="0.5" stroke-linecap="round" stroke-linejoin="round"/>
<path d="M76.5129 253.653C77.7117 253.774 78.7813 252.9 78.9019 251.701C79.0226 250.502 78.1486 249.433 76.9498 249.312C75.7511 249.191 74.6815 250.065 74.5608 251.264C74.4402 252.463 75.3142 253.532 76.5129 253.653Z" fill="#956694" stroke="black" stroke-width="0.5" stroke-miterlimit="10"/>
<path d="M84.0002 254.407C85.199 254.528 86.2686 253.654 86.3892 252.455C86.5099 251.256 85.6359 250.187 84.4371 250.066C83.2384 249.945 82.1688 250.819 82.0481 252.018C81.9275 253.217 82.8015 254.286 84.0002 254.407Z" fill="#FF5A87" stroke="black" stroke-width="0.5" stroke-miterlimit="10"/>
<path d="M137.839 332.727L130.257 325.277C129.357 324.419 128.315 323.875 127.143 323.538L106.167 318.467C103.812 317.901 102.044 315.859 101.97 313.331C101.945 317.932 105.036 322.08 109.506 323.407L127.596 328.846L137.216 338.913L135.535 353.434L139.116 337.46C139.617 335.756 139.032 333.943 137.839 332.727Z" fill="#452F44"/>
<path d="M143.087 373.16L138.793 366.808C136.126 362.812 134.957 358.09 135.535 353.434L137.085 339.119L127.465 329.052L109.376 323.614C104.905 322.287 101.923 318.15 101.839 313.537" stroke="black" stroke-width="0.5" stroke-linecap="round" stroke-linejoin="round"/>
<path d="M149.331 400.427L167.062 388.728L152.716 402.741L149.331 400.427Z" fill="#6D4B6C"/>
<path d="M181.432 355.97L185.071 351.403" stroke="black" stroke-width="0.5" stroke-linecap="round" stroke-linejoin="round"/>
<path d="M185.475 363.723L189.622 362.824" stroke="black" stroke-width="0.5" stroke-linecap="round" stroke-linejoin="round"/>
<path d="M109.373 293.137L106.76 289.695" stroke="black" stroke-width="0.5" stroke-linecap="round" stroke-linejoin="round"/>
<path d="M102.807 394.319L97.0322 396.15" stroke="black" stroke-width="0.5" stroke-linecap="round" stroke-linejoin="round"/>
<path opacity="0.25" d="M207.86 407.085L172.812 377.357C170.371 375.467 168.539 372.98 167.292 370.114L158.135 348.912L163.809 369.873C165 374.378 167.547 378.471 171.073 381.567L204.081 410.871L207.86 407.085Z" fill="white"/>
<path d="M173.637 444.312L230.927 402.281L199.018 368.594L124.355 423.128L173.637 444.312Z" fill="url(#paint4_linear)"/>
<path d="M93.1266 222.547L112.336 224.481L104.785 218.897L85.5762 216.964L93.1266 222.547Z" fill="#D3ADD3" stroke="black" stroke-width="0.5" stroke-miterlimit="10" stroke-linejoin="round"/>
<path d="M96.0221 193.788L115.231 195.721L107.681 190.137L88.4717 188.204L96.0221 193.788Z" fill="#DFC2DE" stroke="black" stroke-width="0.5" stroke-miterlimit="10" stroke-linejoin="round"/>
<path d="M107.681 190.137L88.4717 188.204L85.588 216.855L104.797 218.789L107.681 190.137Z" fill="#DFC2DE" stroke="black" stroke-width="0.5" stroke-miterlimit="10" stroke-linejoin="round"/>
<path d="M115.231 195.721L107.681 190.137L104.786 218.897L112.336 224.481L115.231 195.721Z" fill="#D3ADD3" stroke="black" stroke-width="0.5" stroke-miterlimit="10" stroke-linejoin="round"/>
<path d="M126.88 225.944L146.198 227.889L138.648 222.305L119.33 220.361L126.88 225.944Z" fill="#D3ADD3" stroke="black" stroke-width="0.5" stroke-miterlimit="10" stroke-linejoin="round"/>
<path d="M133.051 164.626L152.369 166.571L144.819 160.987L125.501 159.043L133.051 164.626Z" fill="#DFC2DE" stroke="black" stroke-width="0.5" stroke-miterlimit="10" stroke-linejoin="round"/>
<path d="M144.71 160.976L125.501 159.043L119.34 220.252L138.55 222.186L144.71 160.976Z" fill="#DFC2DE" stroke="black" stroke-width="0.5" stroke-miterlimit="10" stroke-linejoin="round"/>
<path d="M152.37 166.571L144.819 160.987L138.648 222.305L146.198 227.889L152.37 166.571Z" fill="#D3ADD3" stroke="black" stroke-width="0.5" stroke-miterlimit="10" stroke-linejoin="round"/>
<path d="M165.625 229.844L184.834 231.777L177.284 226.194L158.074 224.26L165.625 229.844Z" fill="#BFAD00" stroke="black" stroke-width="0.5" stroke-miterlimit="10" stroke-linejoin="round"/>
<path d="M176.165 125.115L195.374 127.049L187.824 121.465L168.614 119.532L176.165 125.115Z" fill="#DFC2DE" stroke="black" stroke-width="0.5" stroke-miterlimit="10" stroke-linejoin="round"/>
<path d="M187.824 121.465L168.614 119.532L158.084 224.152L177.294 226.085L187.824 121.465Z" fill="#FFE600" stroke="black" stroke-width="0.5" stroke-miterlimit="10" stroke-linejoin="round"/>
<path d="M195.375 127.049L187.824 121.465L177.284 226.194L184.834 231.778L195.375 127.049Z" fill="#BFAD00" stroke="black" stroke-width="0.5" stroke-miterlimit="10" stroke-linejoin="round"/>
<path d="M193.642 101.77C193.762 100.576 189.52 99.1622 184.202 98.6269C178.884 98.0917 174.445 98.6315 174.325 99.8253C174.303 100.042 174.389 100.27 174.693 100.52L182.78 114.928L193.045 102.258C193.49 102.193 193.62 101.987 193.642 101.77Z" fill="#FF5A86" stroke="black" stroke-width="0.5" stroke-miterlimit="10" stroke-linejoin="round"/>
<path d="M142.504 284.194C142.591 283.325 138.109 282.107 132.564 281.658C127.246 281.123 122.828 281.446 122.318 282.162" stroke="black" stroke-width="0.5" stroke-miterlimit="10"/>
</g>
<defs>
<linearGradient id="paint0_linear" x1="104.044" y1="376.71" x2="155.245" y2="320.801" gradientUnits="userSpaceOnUse">
<stop stop-color="#966696"/>
<stop offset="0.25" stop-color="#936493"/>
<stop offset="0.46" stop-color="#885D88"/>
<stop offset="0.66" stop-color="#775177"/>
<stop offset="0.85" stop-color="#5E405E"/>
<stop offset="1" stop-color="#452F45"/>
</linearGradient>
<linearGradient id="paint1_linear" x1="98.619" y1="371.743" x2="149.809" y2="315.834" gradientUnits="userSpaceOnUse">
<stop stop-color="#966696"/>
<stop offset="0.25" stop-color="#936493"/>
<stop offset="0.46" stop-color="#885D88"/>
<stop offset="0.66" stop-color="#775177"/>
<stop offset="0.85" stop-color="#5E405E"/>
<stop offset="1" stop-color="#452F45"/>
</linearGradient>
<linearGradient id="paint2_linear" x1="91.9408" y1="365.624" x2="143.131" y2="309.715" gradientUnits="userSpaceOnUse">
<stop stop-color="#966696"/>
<stop offset="0.25" stop-color="#936493"/>
<stop offset="0.46" stop-color="#885D88"/>
<stop offset="0.66" stop-color="#775177"/>
<stop offset="0.85" stop-color="#5E405E"/>
<stop offset="1" stop-color="#452F45"/>
</linearGradient>
<linearGradient id="paint3_linear" x1="82.6349" y1="357.11" x2="133.825" y2="301.201" gradientUnits="userSpaceOnUse">
<stop stop-color="#966696"/>
<stop offset="0.25" stop-color="#936493"/>
<stop offset="0.46" stop-color="#885D88"/>
<stop offset="0.66" stop-color="#775177"/>
<stop offset="0.85" stop-color="#5E405E"/>
<stop offset="1" stop-color="#452F45"/>
</linearGradient>
<linearGradient id="paint4_linear" x1="155.417" y1="389.973" x2="201.695" y2="433.422" gradientUnits="userSpaceOnUse">
<stop offset="0.2076" stop-color="#C997C9" stop-opacity="0"/>
<stop offset="0.6806" stop-color="#C997C9"/>
</linearGradient>
</defs>
</svg>
